<?xml version="1.0" standalone="no"?>
<!DOCTYPE svg PUBLIC "-//W3C//DTD SVG 20010904//EN"
 "http://www.w3.org/TR/2001/REC-SVG-20010904/DTD/svg10.dtd">
<svg version="1.0" xmlns="http://www.w3.org/2000/svg"
 width="278.000000pt" height="278.000000pt" viewBox="0 0 278.000000 278.000000"
 preserveAspectRatio="xMidYMid meet">
<metadata>
Created by potrace 1.14, written by Peter Selinger 2001-2017
</metadata>
<g transform="translate(0.000000,278.000000) scale(0.100000,-0.100000)"
fill="#000000" stroke="none">
<path d="M0 2684 c0 -70 3 -93 12 -88 8 5 9 2 2 -12 -5 -10 -10 -228 -12 -484
l-2 -465 24 -30 c20 -25 28 -28 42 -19 26 16 191 458 210 559 3 22 10 45 14
50 4 6 13 43 20 83 7 41 16 70 20 65 14 -14 79 -150 109 -226 19 -50 26 -85
23 -113 -5 -50 33 -132 72 -158 17 -10 26 -26 27 -44 2 -50 24 -137 34 -134 6
2 9 10 7 18 -2 8 2 14 8 14 5 0 10 -9 10 -20 0 -25 -51 -82 -188 -215 -188
-180 -258 -314 -251 -481 l3 -74 -35 -24 c-64 -43 -110 -135 -129 -253 -11
-66 -16 -471 -6 -481 3 -2 1 -14 -5 -25 -9 -15 -8 -18 1 -12 10 6 11 1 7 -21
-3 -16 -1 -44 6 -61 9 -28 16 -33 43 -33 18 0 35 6 37 13 4 9 6 9 6 0 1 -10
61 -13 266 -13 l265 0 -12 28 c-7 15 -18 34 -25 43 -9 10 -11 27 -7 49 5 25 4
31 -5 26 -7 -5 -10 -15 -6 -25 4 -10 3 -12 -3 -6 -14 15 -54 185 -48 201 3 9
1 12 -4 9 -6 -3 -10 -1 -10 4 0 6 5 11 10 11 16 0 13 347 -2 353 -7 3 5 3 27
1 22 -2 31 -1 21 2 -15 5 -16 8 -5 15 12 8 12 11 -1 20 -12 8 -9 9 13 5 25 -6
27 -5 15 13 -9 14 -15 17 -20 8 -4 -6 -11 -8 -15 -3 -4 5 -2 11 5 14 49 17
134 125 152 192 6 22 14 39 18 36 4 -2 7 12 8 32 3 140 20 225 53 265 10 12
11 17 2 17 -7 0 -9 5 -5 12 4 7 3 8 -4 4 -6 -4 -9 -13 -6 -20 3 -7 -1 -16 -8
-18 -10 -4 -12 4 -10 34 4 34 7 38 26 33 11 -2 15 -2 9 1 -7 3 -13 13 -13 22
0 15 -2 15 -10 2 -7 -11 -10 -5 -10 23 0 37 12 48 27 25 4 -7 7 -24 6 -38 l-2
-25 8 25 c9 27 -9 67 -28 63 -14 -4 -15 123 -1 132 14 9 12 21 -6 39 -14 15
-14 17 0 32 20 19 22 41 3 25 -11 -8 -14 -5 -14 19 0 19 5 30 14 30 8 0 11 -4
8 -10 -3 -5 -2 -10 4 -10 16 0 22 18 9 26 -8 5 -6 10 8 15 15 6 11 8 -16 9
-25 2 -12 7 50 19 177 36 286 84 371 162 30 27 60 49 67 49 7 0 11 4 8 9 -3 4
4 17 15 27 12 10 28 32 36 47 8 16 17 26 21 23 3 -4 -5 -20 -18 -38 -19 -25
-20 -30 -6 -25 10 4 20 7 22 7 3 0 3 4 -1 9 -3 5 1 16 9 24 8 8 12 18 8 23 -4
5 1 2 11 -5 14 -12 22 -12 45 -1 l27 13 -28 8 c-16 4 -37 6 -48 4 -12 -2 -17
0 -13 7 8 12 76 3 108 -14 11 -7 25 -11 29 -10 15 4 77 -39 71 -49 -3 -5 -1
-8 4 -7 12 3 38 -13 95 -60 28 -23 35 -33 22 -30 -11 1 -28 12 -37 23 -10 11
-17 15 -18 8 0 -6 5 -15 10 -18 6 -3 10 -11 10 -18 0 -6 -7 -2 -15 10 -9 12
-14 28 -13 35 2 7 -4 13 -12 13 -8 0 -19 6 -23 13 -4 6 -13 12 -18 12 -6 0 -3
-7 5 -16 38 -37 67 -84 61 -96 -4 -7 -1 -6 7 2 7 9 25 15 40 15 32 0 28 -5
-16 -20 -26 -9 -37 -9 -50 1 -11 7 -13 14 -6 17 6 3 5 4 -2 2 -7 -1 -12 -8
-10 -14 1 -6 -2 -11 -8 -11 -5 0 -10 -5 -10 -12 0 -9 3 -9 12 0 14 14 28 16
28 3 0 -5 -10 -13 -21 -16 -20 -7 -54 -40 -101 -100 -27 -35 -59 -129 -60
-179 -1 -23 -6 -47 -11 -53 -6 -9 -6 -13 2 -13 6 0 11 -12 11 -27 0 -32 32
-122 58 -161 22 -35 63 -71 81 -72 7 0 -5 -18 -28 -41 -23 -22 -40 -46 -38
-52 8 -26 40 -17 83 22 24 23 55 46 69 51 14 5 25 14 25 20 0 5 5 10 12 10 6
0 40 14 75 30 82 39 210 69 288 69 51 -1 56 -3 35 -12 -14 -5 -27 -10 -30 -9
-3 0 -6 -9 -7 -21 0 -12 1 -16 4 -9 3 6 9 12 15 12 6 0 7 -7 4 -16 -5 -14 -4
-15 9 -4 17 14 21 0 4 -17 -7 -7 -13 -38 -14 -71 -2 -45 2 -67 17 -91 11 -17
25 -31 31 -31 6 0 7 -3 4 -6 -9 -10 78 -48 142 -64 29 -7 78 -10 110 -7 31 3
48 3 39 0 -25 -6 -22 -33 3 -33 11 0 18 4 15 9 -3 5 3 11 14 14 16 4 18 2 10
-12 -25 -49 -174 -139 -207 -127 -9 4 -11 1 -7 -6 5 -7 0 -9 -14 -6 -12 4 -20
3 -17 -2 11 -19 -208 -28 -261 -10 -16 5 -48 14 -71 20 -35 9 -43 15 -43 33 0
15 -13 31 -41 49 -22 15 -35 29 -30 33 6 3 11 12 11 18 -1 14 -24 -23 -25 -38
0 -5 -8 -11 -18 -13 -17 -4 -17 -1 4 27 14 19 23 45 23 73 1 37 -2 43 -19 43
-11 0 -23 5 -27 10 -5 6 -5 -5 -2 -23 14 -69 -83 -150 -187 -156 -19 -1 -26
-6 -25 -21 1 -16 9 -21 41 -23 22 -2 56 1 76 7 46 14 75 6 57 -16 -11 -13 -13
-13 -18 1 -5 14 -8 15 -23 3 -17 -12 -17 -14 5 -32 13 -11 17 -13 11 -5 -21
23 -15 32 9 16 12 -9 34 -16 48 -15 23 0 23 1 5 8 -11 5 -24 6 -29 3 -5 -3 -6
0 -2 6 10 17 21 15 58 -8 24 -15 28 -20 13 -19 -40 4 -54 -1 -49 -16 3 -8 11
-13 17 -12 6 1 12 -14 13 -36 1 -20 -3 -37 -9 -37 -6 0 -8 -3 -4 -6 3 -3 14
-1 24 5 10 6 13 11 6 11 -8 0 -9 9 -2 32 6 23 5 34 -4 40 -8 5 -7 8 6 8 14 0
17 -8 16 -50 -2 -36 -6 -50 -17 -50 -12 0 -12 -3 -2 -15 6 -8 18 -58 26 -112
16 -113 17 -156 6 -149 -11 7 -18 -138 -12 -249 3 -68 16 10 15 91 -1 48 2 84
8 84 13 0 -1 -271 -15 -287 -6 -7 -16 -13 -22 -13 -7 0 -31 -18 -54 -40 -28
-28 -44 -37 -47 -28 -3 7 -19 14 -35 15 -18 1 -28 -2 -25 -8 4 -5 12 -6 18 -3
9 5 9 4 1 -5 -11 -12 -48 -5 -40 8 2 3 -35 7 -82 9 -52 2 -90 8 -94 15 -6 9
-10 9 -16 -1 -9 -14 -102 -15 -102 -1 0 4 -15 9 -32 11 -21 2 -33 8 -33 18 0
8 -7 15 -15 15 -8 0 -14 -5 -13 -12 4 -21 -23 -21 -55 -1 -18 11 -29 24 -26
29 3 5 -2 6 -10 3 -11 -4 -16 0 -16 10 0 9 -4 16 -9 16 -11 0 -33 60 -23 60 4
0 0 5 -8 10 -13 9 -13 12 3 21 13 8 15 14 7 30 -6 10 -16 19 -22 19 -9 0 -9
-3 0 -12 7 -7 12 -17 12 -22 0 -25 -30 35 -36 71 -7 44 8 65 29 43 9 -10 8
-12 -5 -7 -15 5 -16 3 -5 -20 l11 -25 8 28 c5 19 3 31 -5 36 -12 8 -2 12 18 8
6 -1 4 4 -2 11 -16 16 -17 33 -1 23 7 -4 8 -3 4 4 -5 9 -12 8 -26 -1 -25 -15
-26 -28 -3 -21 15 5 15 4 3 -4 -8 -6 -18 -8 -22 -6 -4 3 -8 0 -8 -6 0 -6 -5
-8 -10 -5 -6 4 2 21 20 42 23 26 30 43 28 66 -4 45 -33 48 -43 5 l-8 -33 -7
37 c-4 20 -13 45 -21 54 -12 16 -12 17 1 12 11 -4 16 1 17 16 0 11 -1 15 -4 9
-3 -7 -10 -13 -17 -13 -7 0 -18 -11 -25 -24 -13 -23 -12 -32 13 -282 1 -11 6
-26 10 -33 5 -7 3 -18 -3 -24 -8 -8 -11 -8 -11 2 0 7 -5 9 -12 5 -9 -5 -9 -2
1 9 8 10 9 17 3 17 -7 0 -11 23 -10 57 0 32 -3 78 -7 103 -5 25 -8 52 -6 62 1
9 -3 20 -10 24 -8 4 -9 3 -5 -4 4 -7 2 -12 -3 -12 -6 0 -11 10 -12 23 0 21 -1
21 -8 2 l-8 -20 -6 20 c-3 11 -4 -24 -3 -77 2 -55 -1 -98 -6 -98 -7 0 -10 45
-8 165 0 46 -10 66 -33 63 -22 -3 -22 -6 -20 -138 2 -161 32 -313 73 -372 24
-36 28 -37 83 -38 36 0 57 4 57 11 0 8 4 8 13 1 18 -15 701 -14 733 0 13 6 24
14 24 19 0 14 82 41 93 30 8 -8 4 -11 -13 -11 -22 0 -90 -33 -90 -43 0 -8 81
-3 86 5 3 4 -2 8 -11 8 -9 0 -13 5 -10 11 5 7 13 5 24 -5 15 -14 19 -14 39 0
26 18 29 12 6 -10 -14 -15 -7 -16 75 -16 50 0 91 2 91 5 0 3 -20 14 -44 25
l-44 18 -7 84 c-11 128 -41 263 -75 336 -40 86 -88 362 -63 362 5 0 45 -9 88
-20 232 -59 499 22 606 186 15 22 30 55 34 74 4 20 20 46 37 60 17 14 41 47
54 74 57 118 3 251 -119 293 -44 15 -146 11 -195 -9 -66 -25 -124 -33 -230
-30 l-113 3 6 29 c3 16 8 48 10 72 12 145 -87 320 -202 357 -30 10 -45 22 -53
42 -7 16 -18 34 -26 40 -18 15 -18 30 0 23 8 -3 17 -1 20 4 3 5 -8 8 -24 6
-17 -2 -30 0 -30 4 0 14 -111 93 -167 119 -31 15 -73 27 -93 29 -19 1 -38 2
-42 3 -5 1 -8 9 -8 19 0 9 4 13 8 7 4 -5 14 -11 22 -13 11 -3 11 1 -3 16 -11
12 -17 36 -17 68 0 61 -29 125 -69 155 -16 12 -29 25 -26 28 2 4 -15 5 -37 4
-35 -2 -39 0 -35 17 4 15 0 20 -15 20 -17 0 -19 -2 -7 -16 10 -13 10 -17 -2
-25 -8 -5 -18 -8 -24 -8 -5 0 -4 3 3 6 20 8 13 25 -8 18 -21 -7 -27 4 -10 21
6 6 3 10 -9 10 -12 0 -17 -5 -13 -16 3 -10 2 -12 -6 -5 -10 10 -22 156 -12
150 3 -2 3 17 1 41 -1 25 2 50 8 57 29 35 -1 37 -581 37 l-568 0 0 -96z m838
-140 c7 -2 10 1 7 6 -10 17 16 11 70 -15 28 -14 77 -52 109 -84 l59 -59 -44
-12 c-67 -16 -125 -39 -228 -86 -103 -48 -105 -49 -95 -32 4 7 3 8 -4 4 -6 -4
-9 -12 -6 -19 5 -14 -54 -63 -63 -53 -3 3 -6 19 -7 35 -1 16 -4 27 -7 25 -8
-4 -19 58 -19 106 1 70 60 158 125 186 27 11 63 10 103 -2z m337 -104 c-4 -6
-11 -7 -17 -4 -8 5 -9 1 -4 -12 5 -12 4 -16 -3 -9 -5 6 -7 22 -4 37 5 24 7 25
20 13 8 -8 11 -19 8 -25z m128 -63 c38 -56 41 -100 13 -180 -40 -112 -138
-212 -273 -277 -116 -57 -290 -86 -379 -64 -48 12 -100 50 -117 87 -25 51 -22
93 7 112 33 22 62 26 201 28 104 2 127 5 168 26 78 38 199 134 231 182 54 80
88 111 116 104 14 -4 28 -12 33 -18z m538 -523 c83 -43 158 -226 131 -319 -8
-27 -10 -24 -16 35 -18 156 -65 229 -153 237 -43 5 -53 1 -93 -29 -36 -27 -49
-46 -67 -98 -12 -36 -23 -81 -23 -100 0 -69 40 -181 74 -209 23 -19 20 -26
-18 -46 -44 -24 -73 -12 -116 46 -59 82 -79 222 -46 314 26 71 63 116 124 152
75 44 140 50 203 17z m639 -798 c0 -3 -4 -8 -10 -11 -5 -3 -10 -1 -10 4 0 6 5
11 10 11 6 0 10 -2 10 -4z m-686 -97 c-3 -5 0 -17 7 -25 11 -13 9 -14 -14 -3
-30 14 -32 20 -15 37 13 13 31 6 22 -9z m-44 -9 c0 -5 -2 -10 -4 -10 -3 0 -8
5 -11 10 -3 6 -1 10 4 10 6 0 11 -4 11 -10z m-1584 -147 c7 -10 14 -22 14 -28
0 -5 -7 1 -16 13 -15 22 -17 22 -31 5 -13 -17 -13 -16 -3 5 13 27 19 27 36 5z
m-72 -132 c-4 -17 -9 -30 -11 -27 -3 2 -2 19 2 36 9 41 17 33 9 -9z m126 3 c0
-2 -9 -13 -20 -24 -11 -11 -20 -18 -20 -16 0 2 -3 12 -6 20 -5 12 -2 15 12 9
13 -5 16 -3 11 10 -4 11 -2 14 9 10 7 -3 14 -7 14 -9z m308 -161 c-1 -121 -3
-147 -7 -93 -6 78 -3 260 5 260 2 0 3 -75 2 -167z m-241 80 c-3 -10 -5 -2 -5
17 0 19 2 27 5 18 2 -10 2 -26 0 -35z m-205 2 c-2 -19 -8 -37 -12 -40 -4 -2
-5 8 -3 23 10 59 21 73 15 17z m271 -55 c-3 -12 -8 -19 -11 -16 -5 6 5 36 12
36 2 0 2 -9 -1 -20z m-6 -87 c-3 -10 -5 -4 -5 12 0 17 2 24 5 18 2 -7 2 -21 0
-30z m-265 -75 c2 -21 0 -38 -4 -38 -4 0 -7 24 -7 53 1 54 5 49 11 -15z m821
42 c-3 -12 -8 -19 -11 -16 -5 6 5 36 12 36 2 0 2 -9 -1 -20z m917 0 c0 -11 -4
-20 -9 -20 -5 0 -7 9 -4 20 3 11 7 20 9 20 2 0 4 -9 4 -20z m-909 -50 c11 0
19 -7 19 -17 0 -15 -2 -16 -10 -3 -8 12 -10 11 -10 -7 0 -12 -7 -28 -15 -37
-14 -14 -14 -19 -1 -51 8 -19 12 -43 9 -52 -4 -10 -2 -14 4 -10 6 4 11 1 10
-6 -2 -57 4 -77 23 -77 13 0 18 5 14 15 -4 8 -1 15 6 15 7 0 10 6 7 13 -3 7 1
20 7 29 11 15 13 13 23 -13 7 -17 7 -31 2 -35 -5 -3 -9 5 -9 17 0 36 -10 15
-19 -39 -6 -42 -5 -49 7 -45 11 5 13 1 7 -17 -5 -17 -4 -21 5 -15 9 5 11 4 6
-3 -4 -7 -2 -12 5 -12 7 0 9 -3 6 -6 -8 -9 -32 11 -59 49 -18 25 -19 30 -5 24
9 -3 17 -2 17 3 0 5 -9 10 -21 12 -15 2 -25 18 -39 58 -27 81 -34 138 -20 155
7 8 9 28 6 47 -3 18 -3 27 0 21 3 -7 14 -13 25 -13z m19 -60 c0 -5 -4 -10 -10
-10 -5 0 -10 5 -10 10 0 6 5 10 10 10 6 0 10 -4 10 -10z m977 -22 c-3 -8 -6
-5 -6 6 -1 11 2 17 5 13 3 -3 4 -12 1 -19z m-1820 -45 c-3 -10 -5 -4 -5 12 0
17 2 24 5 18 2 -7 2 -21 0 -30z m1827 18 c3 -5 -1 -11 -9 -14 -9 -4 -12 -1 -8
9 6 16 10 17 17 5z m16 -119 c2 -62 0 -72 -10 -42 -7 23 -8 23 -9 3 -1 -26
-16 -39 -18 -15 -1 9 -4 28 -7 42 -5 21 -5 22 3 5 5 -11 10 -14 10 -7 1 7 6
10 11 7 6 -4 10 8 10 29 0 19 -4 37 -9 40 -5 3 -8 -7 -7 -23 1 -17 -2 -28 -6
-25 -4 3 -8 21 -8 40 0 21 4 33 10 29 6 -3 10 0 11 7 2 28 18 -46 19 -90z
m-1573 26 c-2 -13 -4 -5 -4 17 -1 22 1 32 4 23 2 -10 2 -28 0 -40z m707 -107
c12 -13 15 -21 7 -16 -8 4 -17 2 -23 -6 -8 -11 -9 -10 -4 4 6 19 -4 23 -20 7
-6 -6 -16 1 -29 23 -13 21 -14 28 -4 20 9 -8 20 -9 29 -3 14 9 13 11 -9 14 -5
0 -13 5 -18 10 -5 5 -3 6 5 2 7 -4 12 -2 12 6 0 7 7 1 17 -12 9 -14 26 -36 37
-49z m170 -6 c3 -8 18 -16 33 -16 17 -1 21 -3 10 -6 -21 -5 -78 18 -71 29 8
13 21 9 28 -7z m-114 -35 c0 -5 -7 -7 -15 -4 -8 4 -15 8 -15 10 0 2 7 4 15 4
8 0 15 -4 15 -10z"/>
<path d="M657 2247 c8 -16 17 -26 21 -23 3 4 0 12 -6 18 -8 8 -8 15 -1 24 8
10 6 13 -9 11 -19 -1 -19 -3 -5 -30z"/>
<path d="M646 2217 c3 -10 9 -15 12 -12 3 3 0 11 -7 18 -10 9 -11 8 -5 -6z"/>
<path d="M1214 2348 c-12 -14 -13 -18 -3 -10 9 6 18 10 21 7 2 -3 5 2 5 10 0
19 0 19 -23 -7z"/>
<path d="M1015 70 c4 -6 11 -8 16 -5 14 9 11 15 -7 15 -8 0 -12 -5 -9 -10z"/>
<path d="M2308 2753 c-3 -26 8 -160 17 -208 2 -11 5 -27 6 -35 2 -8 6 28 9 80
6 86 6 79 9 -75 1 -93 4 -179 6 -190 1 -11 9 -84 16 -162 l12 -142 36 -29 c29
-24 53 -32 121 -41 74 -10 189 -16 228 -12 8 1 12 21 12 67 l0 65 -77 -1
c-173 -3 -269 1 -238 11 17 5 39 6 50 3 15 -5 17 -3 9 6 -6 6 -29 14 -51 17
-22 3 -40 10 -41 17 -2 18 -12 503 -12 584 l0 72 -54 0 c-52 0 -55 -1 -58 -27z
m29 -57 c-12 -12 -14 -10 -14 14 0 24 2 26 14 14 12 -12 12 -16 0 -28z m136
-603 c-7 -2 -19 -2 -25 0 -7 3 -2 5 12 5 14 0 19 -2 13 -5z"/>
<path d="M2550 2671 c0 -71 -4 -112 -11 -117 -8 -5 -7 -9 4 -15 12 -7 15 -36
15 -165 0 -120 3 -159 14 -165 7 -5 57 -9 110 -9 l97 0 0 290 0 290 -115 0
-114 0 0 -109z"/>
<path d="M1191 2744 c0 -11 3 -14 6 -6 3 7 2 16 -1 19 -3 4 -6 -2 -5 -13z"/>
<path d="M2431 2504 c0 -11 3 -14 6 -6 3 7 2 16 -1 19 -3 4 -6 -2 -5 -13z"/>
<path d="M2320 2430 c0 -5 5 -10 11 -10 5 0 7 5 4 10 -3 6 -8 10 -11 10 -2 0
-4 -4 -4 -10z"/>
<path d="M1473 2079 c9 -6 15 -14 12 -20 -3 -5 1 -6 10 -3 14 6 14 8 -2 20
-10 7 -22 13 -28 13 -5 0 -2 -4 8 -10z"/>
<path d="M1517 2078 c7 -8 10 -18 6 -21 -3 -4 3 -7 15 -7 29 0 28 4 -5 26 -20
13 -25 13 -16 2z"/>
<path d="M306 1968 c-11 -147 -16 -178 -42 -266 -21 -70 -90 -244 -154 -387
-10 -22 -21 -50 -24 -62 -9 -29 -17 -29 -40 2 -49 65 -45 63 -46 25 0 -27 9
-45 40 -79 50 -55 57 -50 98 64 16 44 39 100 50 125 98 212 149 386 151 520 1
20 5 30 10 25 19 -21 65 -166 85 -270 24 -122 42 -129 32 -12 -9 94 -11 104
-53 222 -63 181 -65 185 -83 185 -15 0 -18 -14 -24 -92z"/>
<path d="M1303 2006 c3 -7 0 -19 -6 -25 -9 -9 -8 -11 5 -6 17 7 21 45 5 45 -5
0 -7 -6 -4 -14z"/>
<path d="M1260 1969 c0 -5 5 -7 10 -4 6 3 10 8 10 11 0 2 -4 4 -10 4 -5 0 -10
-5 -10 -11z"/>
<path d="M1211 1924 c-19 -19 -21 -28 -12 -37 10 -9 11 -8 6 5 -4 11 0 18 14
23 12 3 21 13 21 21 0 18 -1 18 -29 -12z"/>
<path d="M1045 1726 c-84 -40 -137 -103 -179 -214 -50 -135 -51 -255 -2 -366
25 -56 89 -120 144 -143 51 -21 159 -22 201 0 19 9 38 17 44 17 5 0 27 18 49
40 22 22 45 37 51 33 6 -3 7 -1 3 5 -8 13 28 75 38 65 4 -4 4 0 1 8 -3 9 1 37
10 63 14 39 19 101 26 266 1 36 -11 74 -29 92 -19 20 -19 20 -18 -1 0 -12 5
-20 9 -19 14 5 37 -74 27 -91 -7 -13 -11 -11 -20 13 -6 16 -9 35 -6 43 3 7 2
13 -2 13 -4 0 -16 14 -26 31 -33 56 -78 100 -129 126 -62 31 -149 40 -192 19z
m160 -77 c54 -25 97 -72 126 -139 20 -46 24 -71 24 -155 0 -93 -2 -105 -33
-167 -51 -105 -133 -155 -231 -143 -101 13 -162 59 -196 150 -15 37 -17 66
-13 153 5 93 10 116 37 177 37 80 88 132 141 141 19 3 40 7 45 9 16 5 57 -6
100 -26z"/>
<path d="M1031 1519 c-52 -71 -79 -185 -60 -253 22 -77 93 -136 164 -136 56 0
90 24 119 82 22 43 26 66 26 134 0 76 -2 85 -32 130 -39 56 -87 84 -145 84
-39 0 -46 -4 -72 -41z"/>
<path d="M787 1564 c-4 -4 -7 -16 -7 -26 0 -18 1 -18 16 -3 11 10 13 20 7 26
-5 5 -12 6 -16 3z"/>
<path d="M781 1494 c0 -11 3 -14 6 -6 3 7 2 16 -1 19 -3 4 -6 -2 -5 -13z"/>
<path d="M2074 1299 c0 -10 4 -19 8 -19 4 0 8 6 8 14 0 8 -4 17 -8 20 -4 2 -8
-4 -8 -15z"/>
<path d="M790 1259 c0 -5 5 -7 10 -4 6 3 10 8 10 11 0 2 -4 4 -10 4 -5 0 -10
-5 -10 -11z"/>
<path d="M1595 1176 c-17 -13 -17 -13 11 -13 16 0 23 2 16 4 -6 3 -10 9 -6 14
7 13 1 11 -21 -5z"/>
<path d="M2070 1163 c0 -12 48 -58 54 -52 5 5 -13 30 -36 48 -10 7 -18 9 -18
4z"/>
<path d="M1381 1098 c5 -10 11 -18 12 -18 2 0 3 8 3 18 0 10 -6 19 -13 19 -8
0 -9 -6 -2 -19z"/>
<path d="M2133 1087 c9 -8 17 -19 17 -25 0 -5 9 -8 20 -5 20 5 28 23 10 23
-18 0 -25 2 -45 12 -18 8 -19 8 -2 -5z"/>
<path d="M1705 1049 c-4 -6 -5 -12 -2 -15 2 -3 7 2 10 11 7 17 1 20 -8 4z"/>
<path d="M1671 1036 c-7 -8 -9 -21 -5 -27 5 -9 10 -5 16 11 10 28 5 36 -11 16z"/>
<path d="M1644 1018 c4 -14 0 -18 -17 -18 -12 0 -28 -4 -35 -8 -8 -5 1 -8 23
-8 37 1 49 14 33 37 -8 11 -9 10 -4 -3z"/>
<path d="M2392 998 c6 -16 46 -19 55 -5 3 6 1 7 -5 3 -6 -3 -13 -2 -17 4 -9
14 -37 12 -33 -2z"/>
<path d="M1520 976 c0 -2 7 -9 15 -16 13 -11 14 -10 9 4 -5 14 -24 23 -24 12z"/>
<path d="M1557 969 c7 -7 15 -10 18 -7 3 3 -2 9 -12 12 -14 6 -15 5 -6 -5z"/>
<path d="M1218 963 c7 -3 16 -2 19 1 4 3 -2 6 -13 5 -11 0 -14 -3 -6 -6z"/>
<path d="M2605 899 c-74 -68 -143 -170 -170 -253 -13 -40 -32 -127 -34 -156
-5 -86 -6 -250 -2 -355 l6 -130 33 -3 34 -3 -7 183 c-12 325 13 452 122 597
30 39 33 41 34 20 3 -126 49 -318 91 -383 22 -34 51 -66 60 -66 4 0 8 55 7
123 -1 99 -3 115 -11 87 -6 -19 -12 -42 -15 -50 -8 -24 -41 83 -54 173 -6 45
-9 120 -7 167 3 81 2 85 -19 88 -15 2 -37 -11 -68 -39z"/>
<path d="M1878 908 c5 -5 16 -8 23 -6 8 3 3 7 -10 11 -17 4 -21 3 -13 -5z"/>
<path d="M2063 903 c9 -2 23 -2 30 0 6 3 -1 5 -18 5 -16 0 -22 -2 -12 -5z"/>
<path d="M2010 891 c0 -5 17 -11 38 -15 52 -8 72 -7 72 3 0 5 -8 7 -19 4 -10
-2 -35 0 -55 5 -20 6 -36 7 -36 3z"/>
<path d="M2131 884 c0 -11 3 -14 6 -6 3 7 2 16 -1 19 -3 4 -6 -2 -5 -13z"/>
<path d="M1608 883 c7 -3 16 -2 19 1 4 3 -2 6 -13 5 -11 0 -14 -3 -6 -6z"/>
<path d="M2158 883 c6 -2 18 -2 25 0 6 3 1 5 -13 5 -14 0 -19 -2 -12 -5z"/>
<path d="M1598 863 c7 -3 16 -2 19 1 4 3 -2 6 -13 5 -11 0 -14 -3 -6 -6z"/>
<path d="M642 817 c-23 -23 -42 -46 -42 -51 0 -4 17 -6 37 -4 33 4 37 7 39 33
3 53 4 56 16 49 7 -4 8 -3 4 4 -10 16 -6 18 -54 -31z m25 -2 c0 -8 -5 -15 -10
-15 -5 0 -5 -6 1 -13 9 -11 5 -13 -18 -13 -16 0 -27 3 -24 7 2 5 12 5 21 2 11
-4 14 -3 9 6 -4 6 -2 18 4 26 15 19 17 19 17 0z"/>
<path d="M1630 856 c0 -2 7 -7 16 -10 8 -3 12 -2 9 4 -6 10 -25 14 -25 6z"/>
<path d="M1746 693 c7 -42 13 -55 15 -30 4 50 1 67 -11 67 -6 0 -7 -15 -4 -37z"/>
<path d="M551 554 c-1 -71 0 -126 3 -124 7 8 11 238 4 245 -3 3 -7 -51 -7
-121z"/>
<path d="M925 549 c-4 -6 -5 -12 -2 -15 2 -3 7 2 10 11 7 17 1 20 -8 4z"/>
<path d="M2591 462 c-10 -20 -13 -317 -4 -410 5 -47 8 -52 30 -52 l25 0 -7 88
c-7 97 -13 272 -8 272 1 0 15 -24 29 -52 27 -54 103 -157 117 -158 19 -1 4 60
-25 100 -18 24 -53 84 -78 134 -25 50 -50 92 -57 94 -6 2 -16 -5 -22 -16z"/>
<path d="M767 420 c-3 -11 -2 -22 2 -24 4 -3 8 6 9 20 2 29 -4 31 -11 4z"/>
<path d="M551 404 c0 -11 3 -14 6 -6 3 7 2 16 -1 19 -3 4 -6 -2 -5 -13z"/>
<path d="M551 364 c0 -11 3 -14 6 -6 3 7 2 16 -1 19 -3 4 -6 -2 -5 -13z"/>
<path d="M554 271 c1 -19 7 -36 13 -38 16 -6 27 17 15 29 -6 6 -8 18 -5 27 4
13 3 13 -5 2 -8 -11 -10 -11 -14 0 -3 8 -5 -1 -4 -20z"/>
<path d="M785 260 c3 -5 8 -10 11 -10 2 0 4 5 4 10 0 6 -5 10 -11 10 -5 0 -7
-4 -4 -10z"/>
<path d="M766 234 c-3 -9 -4 -20 -1 -24 7 -11 35 -1 35 12 0 6 -7 4 -16 -3
-15 -12 -16 -11 -10 9 8 25 1 30 -8 6z"/>
<path d="M1074 208 c1 -7 8 -22 15 -33 11 -17 12 -17 7 -2 -3 10 -6 25 -6 33
0 8 -4 14 -9 14 -5 0 -8 -6 -7 -12z"/>
<path d="M566 195 c4 -8 8 -15 10 -15 2 0 4 7 4 15 0 8 -4 15 -10 15 -5 0 -7
-7 -4 -15z"/>
<path d="M799 174 c-5 -15 -8 -29 -5 -31 2 -2 8 10 14 26 13 38 5 41 -9 5z"/>
<path d="M1780 156 c0 -9 5 -16 10 -16 6 0 10 4 10 9 0 6 -4 13 -10 16 -5 3
-10 -1 -10 -9z"/>
<path d="M817 154 c-4 -4 -7 -14 -7 -23 0 -11 3 -12 11 -4 6 6 10 16 7 23 -2
6 -7 8 -11 4z"/>
<path d="M1142 130 c0 -14 2 -19 5 -12 2 6 2 18 0 25 -3 6 -5 1 -5 -13z"/>
<path d="M1155 100 c-3 -5 1 -10 10 -10 9 0 13 5 10 10 -3 6 -8 10 -10 10 -2
0 -7 -4 -10 -10z"/>
<path d="M630 59 c0 -8 12 -26 27 -40 15 -13 22 -17 15 -8 -6 9 -10 19 -7 22
3 4 2 5 -2 2 -4 -3 -13 5 -20 17 -8 16 -12 18 -13 7z"/>
<path d="M846 52 c-3 -6 -1 -14 5 -17 14 -9 20 -2 10 14 -6 8 -11 9 -15 3z"/>
<path d="M865 10 c3 -5 11 -10 16 -10 6 0 7 5 4 10 -3 6 -11 10 -16 10 -6 0
-7 -4 -4 -10z"/>
</g>
</svg>
